<?xml version="1.0" encoding="utf-8"?>
<!-- Generator: Adobe Illustrator 28.3.0, SVG Export Plug-In . SVG Version: 6.00 Build 0)  -->
<svg version="1.1" id="Layer_1" xmlns="http://www.w3.org/2000/svg" xmlns:xlink="http://www.w3.org/1999/xlink" x="0px" y="0px"
	 viewBox="0 0 1000 270" style="enable-background:new 0 0 1000 270;" xml:space="preserve">
<style type="text/css">
	.st0{fill:#191919;}
</style>
<g>
	<path class="st0" d="M38.96,203.97v11.07c0,7.96,1.89,14.22,5.67,18.78c3.77,4.56,9.44,6.84,17,6.84c6.85,0,11.92-1.7,15.23-5.1
		c3.3-3.4,4.96-8.22,4.96-14.44c0-6.61-1.95-11.52-5.84-14.73c-3.9-3.21-9.27-6.66-16.11-10.35l-18.42-9.69
		c-5.43-2.74-10.63-5.67-15.58-8.81c-4.96-3.13-9.27-6.8-12.93-11.01c-3.66-4.21-6.61-9.15-8.85-14.83
		c-2.25-5.67-3.36-12.33-3.36-19.96c0-15.46,5.31-27.89,15.94-37.29c10.63-9.39,24.91-14.09,42.86-14.09
		c19.36,0,34.06,4.7,44.1,14.09c10.03,9.39,15.05,23,15.05,40.81v10.57H80.04v-10.78c0-16.89-6.85-25.34-20.54-25.34
		c-6.14,0-10.75,1.8-13.81,5.39c-3.07,3.6-4.6,8.41-4.6,14.44c0,6.23,1.59,11.09,4.78,14.58c3.19,3.5,7.61,6.71,13.28,9.62
		l20.19,10.57c6.38,3.13,12.22,6.36,17.53,9.69s9.86,7.1,13.64,11.3c3.77,4.21,6.73,9.01,8.85,14.39c2.13,5.39,3.19,11.6,3.19,18.64
		c0,16.64-5.55,29.41-16.65,38.31C94.8,265.55,80.04,270,61.63,270c-18.89,0-33.89-4.6-44.98-13.8C5.55,247,0,233.11,0,214.51
		v-10.57h38.96V203.97z"/>
	<path class="st0" d="M179.92,270V114.99h-41.79V85.04H266.7v29.95h-42.86V270L179.92,270L179.92,270z"/>
	<path class="st0" d="M376.84,270c-1.66-3.91-2.78-8.9-3.36-14.97c-0.59-6.06-1.24-14.87-1.95-26.42
		c-0.71-9.59-2.66-16.83-5.84-21.73c-3.19-4.89-9.62-7.34-19.3-7.34h-9.21V270h-43.21V85.04h57.02c12.04,0,22.37,1.28,30.99,3.82
		c8.62,2.55,15.76,6.17,21.43,10.86c5.67,4.7,9.8,10.38,12.4,17.03c2.6,6.66,3.9,14.09,3.9,22.31c0,14.49-3.49,25.44-10.45,32.88
		c-6.97,7.44-16.11,11.94-27.45,13.5c11.8,2.16,19.89,6.8,24.26,13.95c4.37,7.15,6.91,16.4,7.62,27.74
		c0.47,5.87,0.82,10.96,1.06,15.27c0.23,4.31,0.53,8.12,0.89,11.45c0.35,3.33,0.89,6.27,1.59,8.81c0.71,2.55,1.77,4.99,3.19,7.34
		H376.84z M344.97,170.77c11.8,0,20.01-2.1,24.62-6.31c4.6-4.21,6.91-11.5,6.91-21.87c0-9.2-2.3-16.19-6.91-20.99
		c-4.6-4.79-12.81-7.19-24.62-7.19h-7.79v56.37h7.79V170.77z"/>
	<path class="st0" d="M538.35,85.04L585.81,270h-43.92l-9.21-39.93h-44.27L479.2,270h-40.38l47.46-184.96H538.35z M494.78,202.18
		h31.88l-14.87-66.35h-1.42L494.78,202.18z"/>
	<path class="st0" d="M627.96,270V114.99h-41.79V85.04h128.57v29.95h-42.86V270L627.96,270L627.96,270z"/>
	<path class="st0" d="M814.61,85.04L862.07,270h-43.92l-9.21-39.93h-44.27L755.46,270h-40.38l47.46-184.96H814.61z M771.04,202.18
		h31.88l-14.87-66.35h-1.42L771.04,202.18z"/>
</g>
<g>
	<path class="st0" d="M943.89,80.37l22.58,94.83h-20.89l-4.38-20.47h-21.06l-4.38,20.47h-19.21l22.58-94.83
		C919.13,80.37,943.89,80.37,943.89,80.37z M923.17,140.43h15.16l-7.08-34.02h-0.67L923.17,140.43z"/>
	<path class="st0" d="M1000,80.37v94.83h-20.89V80.37H1000z"/>
</g>
<rect x="0" y="-0.68" class="st0" width="1000" height="26"/>
</svg>
