<?xml version="1.0" encoding="utf-8"?>
<!-- Generator: Adobe Illustrator 28.3.0, SVG Export Plug-In . SVG Version: 6.00 Build 0)  -->
<svg version="1.1" id="Layer_1" xmlns="http://www.w3.org/2000/svg" xmlns:xlink="http://www.w3.org/1999/xlink" x="0px" y="0px"
	 viewBox="0 0 1000 360" style="enable-background:new 0 0 1000 360;" xml:space="preserve">
<style type="text/css">
	.st0{fill:#FFFFFF;}
</style>
<g>
	<g>
		<path class="st0" d="M36.35,205.33v11.07c0,7.96,1.89,14.22,5.67,18.78c3.77,4.56,9.44,6.84,17,6.84c6.85,0,11.92-1.7,15.23-5.1
			c3.3-3.4,4.96-8.22,4.96-14.44c0-6.61-1.95-11.52-5.84-14.73c-3.9-3.21-9.27-6.66-16.11-10.35l-18.42-9.69
			c-5.43-2.74-10.63-5.67-15.58-8.81c-4.96-3.13-9.27-6.8-12.93-11.01c-3.66-4.21-6.61-9.15-8.85-14.83
			c-2.25-5.67-3.36-12.33-3.36-19.96c0-15.46,5.31-27.89,15.94-37.29c10.63-9.39,24.91-14.09,42.86-14.09
			c19.36,0,34.06,4.7,44.1,14.09c10.03,9.39,15.05,23,15.05,40.81v10.57H77.43v-10.78c0-16.89-6.85-25.34-20.54-25.34
			c-6.14,0-10.75,1.8-13.81,5.39c-3.07,3.6-4.6,8.41-4.6,14.44c0,6.23,1.59,11.09,4.78,14.58c3.19,3.5,7.61,6.71,13.28,9.62
			l20.19,10.57c6.38,3.13,12.22,6.36,17.53,9.69s9.86,7.1,13.64,11.3c3.77,4.21,6.73,9.01,8.85,14.39
			c2.13,5.39,3.19,11.6,3.19,18.64c0,16.64-5.55,29.41-16.65,38.31c-11.1,8.91-25.86,13.36-44.27,13.36
			c-18.89,0-33.89-4.6-44.98-13.8c-11.1-9.2-16.65-23.09-16.65-41.69V205.3h38.96V205.33z"/>
		<path class="st0" d="M177.31,269.04V114.03h-41.79V84.08h128.57v29.95h-42.86v155.01L177.31,269.04L177.31,269.04z"/>
		<path class="st0" d="M374.23,269.04c-1.66-3.91-2.78-8.9-3.36-14.97c-0.59-6.06-1.24-14.87-1.95-26.42
			c-0.71-9.59-2.66-16.83-5.84-21.73c-3.19-4.89-9.62-7.34-19.3-7.34h-9.21v70.46h-43.21V84.08h57.02c12.04,0,22.37,1.28,30.99,3.82
			c8.62,2.55,15.76,6.17,21.43,10.86c5.67,4.7,9.8,10.38,12.4,17.03c2.6,6.66,3.9,14.09,3.9,22.31c0,14.49-3.49,25.44-10.45,32.88
			c-6.97,7.44-16.11,11.94-27.45,13.5c11.8,2.16,19.89,6.8,24.26,13.95c4.37,7.15,6.91,16.4,7.62,27.74
			c0.47,5.87,0.82,10.96,1.06,15.27c0.23,4.31,0.53,8.12,0.89,11.45c0.35,3.33,0.89,6.27,1.59,8.81c0.71,2.55,1.77,4.99,3.19,7.34
			H374.23z M342.36,169.81c11.8,0,20.01-2.1,24.62-6.31c4.6-4.21,6.91-11.5,6.91-21.87c0-9.2-2.3-16.19-6.91-20.99
			c-4.6-4.79-12.81-7.19-24.62-7.19h-7.79v56.37h7.79V169.81z"/>
		<path class="st0" d="M535.74,84.08l47.46,184.96h-43.92l-9.21-39.93H485.8l-9.21,39.93h-40.38l47.46-184.96H535.74z
			 M492.17,201.22h31.88l-14.87-66.35h-1.42L492.17,201.22z"/>
		<path class="st0" d="M625.35,269.04V114.03h-41.79V84.08h128.57v29.95h-42.86v155.01L625.35,269.04L625.35,269.04z"/>
		<path class="st0" d="M812,84.08l47.46,184.96h-43.92l-9.21-39.93h-44.27l-9.21,39.93h-40.38l47.46-184.96H812z M768.43,201.22
			h31.88l-14.87-66.35h-1.42L768.43,201.22z"/>
	</g>
	<g>
		<path class="st0" d="M941.28,81.73l22.58,94.83h-20.89l-4.38-20.47h-21.06l-4.38,20.47h-19.21l22.58-94.83
			C916.52,81.73,941.28,81.73,941.28,81.73z M920.56,141.79h15.16l-7.08-34.02h-0.67L920.56,141.79z"/>
		<path class="st0" d="M997.39,81.73v94.83H976.5V81.73H997.39z"/>
	</g>
	<rect x="-2.61" class="st0" width="1000" height="26"/>
	<g>
		<polygon class="st0" points="19.5,350.06 18.95,350.06 5.36,310 -2.61,310 14.97,359.18 23.48,359.18 41.06,310 33.09,310 		"/>
		<path class="st0" d="M71.34,324.22c-1.44-0.91-2.98-1.54-4.63-1.89c-1.65-0.34-3.2-0.52-4.66-0.52c-2.21,0-4.32,0.32-6.32,0.95
			s-3.77,1.64-5.31,3.03c-1.53,1.39-2.7,3.2-3.49,5.44l6.7,1.54c0.52-1.3,1.47-2.48,2.85-3.54c1.38-1.06,3.26-1.6,5.66-1.6
			c2.31,0,4.04,0.58,5.21,1.73s1.75,2.78,1.75,4.87v0.17c0,0.86-0.31,1.49-0.93,1.87s-1.61,0.66-2.98,0.83
			c-1.37,0.17-3.15,0.38-5.34,0.64c-1.73,0.21-3.43,0.51-5.1,0.91s-3.18,0.99-4.53,1.78s-2.42,1.85-3.22,3.19s-1.19,3.06-1.19,5.14
			c0,2.42,0.54,4.46,1.63,6.12c1.09,1.67,2.57,2.93,4.45,3.81c1.88,0.87,3.98,1.31,6.3,1.31c2.02,0,3.75-0.3,5.2-0.89
			c1.45-0.59,2.63-1.34,3.55-2.23c0.92-0.9,1.61-1.81,2.07-2.74h0.29v5.04h6.96v-24.5c0-2.69-0.46-4.88-1.38-6.57
			C73.96,326.43,72.78,325.13,71.34,324.22z M69.13,345.88c0,1.46-0.37,2.82-1.11,4.09s-1.81,2.3-3.22,3.09
			c-1.41,0.78-3.1,1.18-5.07,1.18c-2.02,0-3.68-0.45-4.98-1.36c-1.3-0.9-1.96-2.25-1.96-4.02c0-1.28,0.34-2.31,1.01-3.09
			c0.68-0.78,1.58-1.37,2.72-1.79s2.4-0.71,3.78-0.89c0.59-0.08,1.32-0.18,2.19-0.3s1.77-0.26,2.7-0.41
			c0.92-0.15,1.74-0.34,2.47-0.55c0.72-0.22,1.21-0.45,1.47-0.71V345.88z"/>
		<rect x="85.76" y="310" class="st0" width="7.13" height="49.18"/>
		<path class="st0" d="M125.69,343.89c0.02,2.1-0.42,3.83-1.3,5.19c-0.88,1.36-1.99,2.38-3.32,3.05c-1.33,0.67-2.66,1.01-4,1.01
			c-2.21,0-4.01-0.74-5.39-2.23c-1.38-1.49-2.07-3.49-2.07-6v-22.6h-7.13v23.46c0,3.04,0.51,5.6,1.54,7.66
			c1.03,2.07,2.44,3.62,4.25,4.67c1.8,1.05,3.88,1.57,6.24,1.57c2.75,0,5.05-0.65,6.9-1.96c1.85-1.3,3.2-2.94,4.04-4.91h0.38v6.39
			h7.01V322.3h-7.16v21.59H125.69z"/>
		<path class="st0" d="M168.93,326.09c-1.54-1.47-3.28-2.55-5.22-3.24s-3.94-1.03-6.01-1.03c-3.4,0-6.37,0.81-8.91,2.43
			c-2.54,1.62-4.51,3.87-5.92,6.75s-2.11,6.21-2.11,9.99c0,3.83,0.7,7.16,2.11,10s3.41,5.04,6.01,6.6c2.6,1.56,5.7,2.34,9.31,2.34
			c2.67,0,5.05-0.41,7.14-1.24c2.09-0.82,3.83-1.99,5.22-3.48c1.39-1.5,2.36-3.25,2.9-5.25l-6.75-1.22
			c-0.43,1.15-1.05,2.12-1.86,2.91c-0.81,0.78-1.77,1.37-2.89,1.77c-1.11,0.39-2.35,0.59-3.7,0.59c-2.08,0-3.9-0.45-5.46-1.36
			c-1.56-0.9-2.77-2.22-3.64-3.95c-0.81-1.61-1.22-3.55-1.28-5.79h26.02v-2.55c0-3.35-0.45-6.19-1.34-8.54
			C171.69,329.47,170.47,327.56,168.93,326.09z M147.9,337.52c0.09-1.58,0.46-3.07,1.17-4.45c0.8-1.58,1.95-2.86,3.43-3.84
			c1.49-0.98,3.23-1.48,5.24-1.48c1.84,0,3.45,0.42,4.83,1.27c1.38,0.85,2.44,2.01,3.21,3.47c0.76,1.47,1.14,3.14,1.14,5.03
			L147.9,337.52L147.9,337.52z"/>
		<path class="st0" d="M186.55,350.06c-1.3,0-2.42,0.47-3.36,1.41s-1.41,2.06-1.41,3.37c0,1.33,0.47,2.46,1.41,3.4
			s2.06,1.41,3.36,1.41c0.87,0,1.67-0.22,2.39-0.65s1.29-1.01,1.73-1.74c0.44-0.73,0.66-1.53,0.66-2.41c0-1.31-0.47-2.44-1.41-3.37
			C188.98,350.53,187.86,350.06,186.55,350.06z"/>
		<path class="st0" d="M249.88,341.75c0,2.23-0.48,4.2-1.44,5.93c-0.96,1.73-2.35,3.09-4.15,4.07c-1.8,0.98-3.95,1.48-6.43,1.48
			c-2.47,0-4.6-0.49-6.39-1.48c-1.8-0.98-3.19-2.34-4.16-4.07c-0.98-1.73-1.47-3.71-1.47-5.93V310h-7.37v32.35
			c0,3.44,0.8,6.49,2.41,9.14c1.61,2.65,3.86,4.73,6.77,6.24c2.91,1.51,6.31,2.27,10.21,2.27c3.91,0,7.32-0.76,10.23-2.27
			c2.91-1.51,5.17-3.59,6.77-6.24c1.61-2.65,2.41-5.7,2.41-9.14V310h-7.39L249.88,341.75L249.88,341.75z"/>
		<path class="st0" d="M292.1,323.39c-1.88-1.05-4.06-1.57-6.56-1.57c-2.75,0-5.03,0.59-6.83,1.78c-1.8,1.18-3.13,2.75-3.97,4.71
			h-0.45v-6h-6.85v36.89h7.13v-21.9c0-1.95,0.37-3.62,1.11-5.01s1.75-2.44,3.03-3.16s2.75-1.08,4.4-1.08c2.42,0,4.32,0.76,5.7,2.27
			c1.38,1.51,2.08,3.61,2.08,6.28v22.6h7.13v-23.46c0-3.04-0.52-5.6-1.55-7.66C295.43,325.99,293.97,324.44,292.1,323.39z"/>
		<path class="st0" d="M334.07,326.09c-1.54-1.47-3.28-2.55-5.22-3.24s-3.94-1.03-6.01-1.03c-3.4,0-6.37,0.81-8.91,2.43
			s-4.51,3.87-5.92,6.75s-2.11,6.21-2.11,9.99c0,3.83,0.7,7.16,2.11,10c1.41,2.84,3.41,5.04,6.01,6.6s5.7,2.34,9.31,2.34
			c2.67,0,5.05-0.41,7.14-1.24c2.09-0.82,3.83-1.99,5.22-3.48c1.39-1.5,2.36-3.25,2.9-5.25l-6.75-1.22
			c-0.43,1.15-1.05,2.12-1.86,2.91c-0.81,0.78-1.77,1.37-2.89,1.77c-1.11,0.39-2.35,0.59-3.7,0.59c-2.08,0-3.9-0.45-5.46-1.36
			c-1.56-0.9-2.77-2.22-3.64-3.95c-0.81-1.61-1.22-3.55-1.28-5.79h26.02v-2.55c0-3.35-0.45-6.19-1.34-8.54
			C336.83,329.47,335.62,327.56,334.07,326.09z M313.05,337.52c0.09-1.58,0.46-3.07,1.17-4.45c0.8-1.58,1.95-2.86,3.44-3.84
			s3.23-1.48,5.24-1.48c1.84,0,3.46,0.42,4.83,1.27c1.38,0.85,2.44,2.01,3.21,3.47c0.76,1.47,1.14,3.14,1.14,5.03L313.05,337.52
			L313.05,337.52z"/>
		<path class="st0" d="M370.82,324.22c-1.44-0.91-2.98-1.54-4.63-1.89c-1.65-0.34-3.2-0.52-4.66-0.52c-2.21,0-4.32,0.32-6.32,0.95
			s-3.77,1.64-5.31,3.03c-1.53,1.39-2.7,3.2-3.49,5.44l6.7,1.54c0.52-1.3,1.48-2.48,2.85-3.54c1.38-1.06,3.26-1.6,5.66-1.6
			c2.31,0,4.04,0.58,5.21,1.73c1.17,1.15,1.75,2.78,1.75,4.87v0.17c0,0.86-0.31,1.49-0.93,1.87s-1.61,0.66-2.98,0.83
			c-1.37,0.17-3.15,0.38-5.34,0.64c-1.73,0.21-3.43,0.51-5.1,0.91s-3.18,0.99-4.53,1.78s-2.42,1.85-3.22,3.19s-1.19,3.06-1.19,5.14
			c0,2.42,0.54,4.46,1.63,6.12c1.09,1.67,2.57,2.93,4.45,3.81c1.88,0.87,3.98,1.31,6.3,1.31c2.02,0,3.75-0.3,5.2-0.89
			c1.45-0.59,2.63-1.34,3.55-2.23c0.92-0.9,1.61-1.81,2.08-2.74h0.29v5.04h6.96v-24.5c0-2.69-0.46-4.88-1.38-6.57
			C373.44,326.43,372.26,325.13,370.82,324.22z M368.61,345.88c0,1.46-0.37,2.82-1.11,4.09s-1.81,2.3-3.22,3.09
			c-1.41,0.78-3.1,1.18-5.07,1.18c-2.02,0-3.68-0.45-4.98-1.36c-1.3-0.9-1.96-2.25-1.96-4.02c0-1.28,0.34-2.31,1.01-3.09
			c0.68-0.78,1.58-1.37,2.72-1.79s2.4-0.71,3.78-0.89c0.59-0.08,1.32-0.18,2.19-0.3s1.77-0.26,2.7-0.41
			c0.92-0.15,1.75-0.34,2.47-0.55c0.72-0.22,1.21-0.45,1.47-0.71L368.61,345.88L368.61,345.88z"/>
		<path class="st0" d="M401.81,321.74c-2.15,0-4.07,0.57-5.76,1.72c-1.69,1.14-2.87,2.71-3.54,4.69h-0.38v-5.86h-6.89v36.89h7.13
			v-22.53c0-1.6,0.38-3.03,1.14-4.29s1.8-2.24,3.11-2.95c1.31-0.71,2.81-1.07,4.5-1.07c0.73,0,1.46,0.05,2.2,0.16
			c0.73,0.1,1.24,0.2,1.53,0.28v-6.87c-0.35-0.05-0.83-0.09-1.44-0.12C402.79,321.76,402.26,321.74,401.81,321.74z"/>
		<path class="st0" d="M426.52,353.16c-0.43,0.08-0.93,0.12-1.5,0.12c-0.78,0-1.5-0.12-2.16-0.37s-1.2-0.72-1.61-1.42
			c-0.41-0.7-0.62-1.74-0.62-3.13v-20.29h7.51v-5.76h-7.51v-8.84h-7.13v8.84h-5.37v5.76h5.37v21.78c0,2.23,0.5,4.07,1.5,5.55
			s2.31,2.56,3.94,3.27c1.62,0.7,3.37,1.04,5.25,1.01c1.14-0.02,2.1-0.11,2.86-0.28c0.76-0.17,1.35-0.33,1.76-0.49l-1.29-5.93
			C427.29,353.01,426.95,353.08,426.52,353.16z"/>
		<path class="st0" d="M460.95,323.38c-1.88-1.04-4.08-1.56-6.59-1.56c-2.85,0-5.15,0.59-6.92,1.75c-1.76,1.17-3.08,2.75-3.94,4.73
			h-0.45V310h-7.04v49.18h7.13v-21.9c0-1.95,0.38-3.62,1.13-5.01c0.76-1.38,1.8-2.44,3.12-3.16c1.33-0.72,2.83-1.08,4.52-1.08
			c2.46,0,4.39,0.75,5.77,2.25c1.38,1.5,2.07,3.6,2.07,6.3v22.6h7.13v-23.46c0-3.07-0.52-5.64-1.56-7.7
			C464.3,325.97,462.84,324.42,460.95,323.38z"/>
		<path class="st0" d="M502.97,326.09c-1.54-1.47-3.28-2.55-5.22-3.24s-3.94-1.03-6.01-1.03c-3.4,0-6.37,0.81-8.91,2.43
			s-4.51,3.87-5.91,6.75c-1.41,2.88-2.11,6.21-2.11,9.99c0,3.83,0.7,7.16,2.11,10c1.41,2.84,3.41,5.04,6.01,6.6s5.7,2.34,9.31,2.34
			c2.67,0,5.05-0.41,7.14-1.24c2.09-0.82,3.83-1.99,5.22-3.48c1.39-1.5,2.36-3.25,2.9-5.25l-6.75-1.22
			c-0.43,1.15-1.05,2.12-1.86,2.91c-0.81,0.78-1.77,1.37-2.89,1.77c-1.11,0.39-2.35,0.59-3.7,0.59c-2.08,0-3.9-0.45-5.46-1.36
			c-1.56-0.9-2.77-2.22-3.64-3.95c-0.81-1.61-1.22-3.55-1.28-5.79h26.02v-2.55c0-3.35-0.45-6.19-1.34-8.54
			C505.73,329.47,504.51,327.56,502.97,326.09z M481.94,337.52c0.09-1.58,0.46-3.07,1.17-4.45c0.8-1.58,1.95-2.86,3.43-3.84
			c1.49-0.98,3.23-1.48,5.24-1.48c1.84,0,3.45,0.42,4.83,1.27c1.38,0.85,2.44,2.01,3.21,3.47c0.76,1.47,1.14,3.14,1.14,5.03
			L481.94,337.52L481.94,337.52z"/>
		<path class="st0" d="M540.63,328.28h-0.43c-0.43-0.77-1.03-1.66-1.8-2.67c-0.77-1.01-1.85-1.89-3.24-2.65
			c-1.39-0.76-3.22-1.14-5.5-1.14c-2.94,0-5.57,0.75-7.89,2.26s-4.15,3.67-5.47,6.51c-1.33,2.83-1.99,6.24-1.99,10.23
			s0.66,7.4,1.97,10.24s3.12,5.03,5.44,6.56c2.31,1.53,4.95,2.29,7.91,2.29c2.23,0,4.04-0.38,5.44-1.13s2.5-1.63,3.3-2.64
			s1.42-1.91,1.85-2.69h0.6v5.74h6.96V310h-7.13v18.28H540.63z M539.64,347.56c-0.74,1.95-1.82,3.48-3.24,4.57
			c-1.42,1.1-3.16,1.64-5.21,1.64c-2.11,0-3.89-0.57-5.33-1.72c-1.44-1.14-2.52-2.7-3.26-4.67c-0.73-1.97-1.1-4.19-1.1-6.65
			c0-2.43,0.36-4.62,1.09-6.56c0.72-1.94,1.8-3.47,3.23-4.59s3.22-1.68,5.37-1.68c2.08,0,3.83,0.54,5.25,1.61
			c1.41,1.07,2.49,2.57,3.22,4.49c0.73,1.92,1.1,4.16,1.1,6.72C540.75,343.33,540.38,345.61,539.64,347.56z"/>
		<path class="st0" d="M565.98,351.46c-0.94-0.94-2.06-1.41-3.36-1.41s-2.43,0.47-3.36,1.41c-0.94,0.94-1.41,2.06-1.41,3.37
			c0,1.33,0.47,2.46,1.41,3.4s2.06,1.41,3.36,1.41c0.87,0,1.67-0.22,2.38-0.65c0.72-0.43,1.29-1.01,1.73-1.74
			c0.44-0.73,0.66-1.53,0.66-2.41C567.39,353.52,566.92,352.4,565.98,351.46z"/>
	</g>
</g>
</svg>
